<svg data-v-423bf9ae="" xmlns="http://www.w3.org/2000/svg" viewBox="0 0 289 90" class="iconLeft"><!----><!----><!----><g data-v-423bf9ae="" id="6e8c1c64-3634-436f-af49-da3edf3b1a70" fill="#FFFFFF" transform="matrix(5.928853821986509,0,0,5.928853821986509,110.01085594475192,-3.498023722931592)"><path d="M4.91 13.24L4.91 13.24L4.91 13.24Q3.89 13.24 3.15 12.96L3.15 12.96L3.15 12.96Q2.41 12.67 1.93 12.16L1.93 12.16L1.93 12.16Q1.44 11.65 1.21 10.94L1.21 10.94L1.21 10.94Q0.98 10.23 0.98 9.38L0.98 9.38L0.98 3.35L3.16 3.35L3.16 9.20L3.16 9.20Q3.16 9.79 3.30 10.20L3.30 10.20L3.30 10.20Q3.43 10.61 3.66 10.87L3.66 10.87L3.66 10.87Q3.89 11.13 4.22 11.24L4.22 11.24L4.22 11.24Q4.55 11.35 4.94 11.35L4.94 11.35L4.94 11.35Q5.74 11.35 6.24 10.86L6.24 10.86L6.24 10.86Q6.73 10.37 6.73 9.20L6.73 9.20L6.73 3.35L8.92 3.35L8.92 9.38L8.92 9.38Q8.92 10.23 8.68 10.95L8.68 10.95L8.68 10.95Q8.44 11.66 7.95 12.17L7.95 12.17L7.95 12.17Q7.46 12.68 6.71 12.96L6.71 12.96L6.71 12.96Q5.95 13.24 4.91 13.24ZM11.51 3.35L13.59 3.35L13.59 3.35Q13.85 3.81 14.18 4.49L14.18 4.49L14.18 4.49Q14.50 5.17 14.86 5.96L14.86 5.96L14.86 5.96Q15.22 6.75 15.57 7.57L15.57 7.57L15.57 7.57Q15.92 8.40 16.23 9.13L16.23 9.13L16.23 9.13Q16.53 8.40 16.88 7.57L16.88 7.57L16.88 7.57Q17.23 6.75 17.59 5.96L17.59 5.96L17.59 5.96Q17.95 5.17 18.28 4.49L18.28 4.49L18.28 4.49Q18.61 3.81 18.86 3.35L18.86 3.35L20.85 3.35L20.85 3.35Q20.99 4.31 21.11 5.51L21.11 5.51L21.11 5.51Q21.22 6.71 21.31 8.00L21.31 8.00L21.31 8.00Q21.41 9.30 21.48 10.60L21.48 10.60L21.48 10.60Q21.56 11.90 21.62 13.05L21.62 13.05L19.49 13.05L19.49 13.05Q19.45 11.63 19.38 9.97L19.38 9.97L19.38 9.97Q19.31 8.30 19.17 6.61L19.17 6.61L19.17 6.61Q18.91 7.20 18.61 7.91L18.61 7.91L18.61 7.91Q18.30 8.62 18.00 9.34L18.00 9.34L18.00 9.34Q17.70 10.05 17.42 10.70L17.42 10.70L17.42 10.70Q17.14 11.35 16.94 11.82L16.94 11.82L15.41 11.82L15.41 11.82Q15.22 11.35 14.94 10.70L14.94 10.70L14.94 10.70Q14.66 10.05 14.36 9.34L14.36 9.34L14.36 9.34Q14.06 8.62 13.75 7.91L13.75 7.91L13.75 7.91Q13.44 7.20 13.19 6.61L13.19 6.61L13.19 6.61Q13.05 8.30 12.98 9.97L12.98 9.97L12.98 9.97Q12.91 11.63 12.87 13.05L12.87 13.05L10.74 13.05L10.74 13.05Q10.79 11.90 10.87 10.60L10.87 10.60L10.87 10.60Q10.95 9.30 11.04 8.00L11.04 8.00L11.04 8.00Q11.13 6.71 11.25 5.51L11.25 5.51L11.25 5.51Q11.37 4.31 11.51 3.35L11.51 3.35ZM26.22 11.38L26.22 11.38L26.22 11.38Q26.68 11.38 26.98 11.30L26.98 11.30L26.98 11.30Q27.29 11.23 27.47 11.10L27.47 11.10L27.47 11.10Q27.65 10.96 27.72 10.78L27.72 10.78L27.72 10.78Q27.79 10.60 27.79 10.37L27.79 10.37L27.79 10.37Q27.79 9.90 27.34 9.58L27.34 9.58L27.34 9.58Q26.89 9.27 25.80 8.90L25.80 8.90L25.80 8.90Q25.33 8.74 24.85 8.52L24.85 8.52L24.85 8.52Q24.37 8.30 24.00 7.97L24.00 7.97L24.00 7.97Q23.62 7.64 23.38 7.17L23.38 7.17L23.38 7.17Q23.14 6.71 23.14 6.03L23.14 6.03L23.14 6.03Q23.14 5.36 23.39 4.82L23.39 4.82L23.39 4.82Q23.65 4.28 24.11 3.91L24.11 3.91L24.11 3.91Q24.57 3.53 25.23 3.32L25.23 3.32L25.23 3.32Q25.89 3.12 26.71 3.12L26.71 3.12L26.71 3.12Q27.69 3.12 28.41 3.33L28.41 3.33L28.41 3.33Q29.12 3.54 29.58 3.79L29.58 3.79L28.95 5.52L28.95 5.52Q28.55 5.31 28.05 5.14L28.05 5.14L28.05 5.14Q27.55 4.98 26.85 4.98L26.85 4.98L26.85 4.98Q26.07 4.98 25.73 5.20L25.73 5.20L25.73 5.20Q25.38 5.42 25.38 5.87L25.38 5.87L25.38 5.87Q25.38 6.13 25.51 6.31L25.51 6.31L25.51 6.31Q25.63 6.50 25.86 6.64L25.86 6.64L25.86 6.64Q26.10 6.79 26.40 6.91L26.40 6.91L26.40 6.91Q26.70 7.03 27.06 7.15L27.06 7.15L27.06 7.15Q27.82 7.43 28.38 7.71L28.38 7.71L28.38 7.71Q28.94 7.98 29.31 8.34L29.31 8.34L29.31 8.34Q29.68 8.71 29.86 9.20L29.86 9.20L29.86 9.20Q30.04 9.69 30.04 10.39L30.04 10.39L30.04 10.39Q30.04 11.75 29.09 12.49L29.09 12.49L29.09 12.49Q28.14 13.24 26.22 13.24L26.22 13.24L26.22 13.24Q25.58 13.24 25.06 13.17L25.06 13.17L25.06 13.17Q24.54 13.09 24.14 12.98L24.14 12.98L24.14 12.98Q23.74 12.87 23.46 12.74L23.46 12.74L23.46 12.74Q23.17 12.61 22.97 12.50L22.97 12.50L23.59 10.77L23.59 10.77Q24.02 11.00 24.66 11.19L24.66 11.19L24.66 11.19Q25.30 11.38 26.22 11.38Z"></path></g><!----><g data-v-423bf9ae="" id="a34cb51b-417a-4e7d-8f48-f31dadf45fa4" transform="matrix(2.994410458179972,0,0,2.994410458179972,0.08943266912044834,-1.9385669710569857)" stroke="none" fill="#2D5151"><path d="M17.572 23.933l4.106 7.095L32 13.189h-8.981V7.582L11.51.972 0 7.582v13.222l11.51 6.611 6.062-3.482zm10.96-8.744l-6.855 11.846-6.855-11.846h13.71z"></path></g><!----></svg>